# xmcd
#
# Track frame offsets: 
#        150
#        17525
#        34980
#        51125
#        74785
#        99085
#        123970
#        137825
#        160490
#        185480
#        211415
#        225897
#        251242
#
# Disc length: 3513 seconds
#
# Revision: 0
# Processed by: cddbd v1.4PL0 Copyright (c) Steve Scherf et al.
# Submitted via: ExactAudioCopy v0.90b4
#
DISCID=b40db70d
DTITLE=Marva Wright - Born With The Blues
DYEAR=1993
DGENRE=Blues
TTITLE0=The Glitter Queen
TTITLE1=What's Wrong
TTITLE2=Three Times
TTITLE3=Before I Met You
TTITLE4=Born With The Blues
TTITLE5=It's Gonna Be Alright
TTITLE6=Been and Gone
TTITLE7=Pray
TTITLE8=Hound Dog
TTITLE9=It's So Nice
TTITLE10=He's On The Way
TTITLE11=Do Right Woman - Do Right Man
TTITLE12=Can't Nobody Love You
EXTD=
EXTT0=
EXTT1=
EXTT2=
EXTT3=
EXTT4=
EXTT5=
EXTT6=
EXTT7=
EXTT8=
EXTT9=
EXTT10=
EXTT11=
EXTT12=
PLAYORDER=
